<svg xmlns="http://www.w3.org/2000/svg" viewBox="0 0 317.81 105.45"><defs><style>.cls-1{fill:#e32726}</style></defs><g id="Layer_2" data-name="Layer 2"><g id="Calque_1" data-name="Calque 1"><path class="cls-1" d="M276.86 58.6a2.05 2.05 0 0 0 .84.46 116.4 116.4 0 0 0 18.27 6c7.1 1.85 14.28 3.34 21.49 4.71.08 0 .15 0 .35.09a10.12 10.12 0 0 1-2.16.27q-8.86.91-17.73 1.77c-4.61.43-9.23.75-13.86.81a17.83 17.83 0 0 1-8.83-2.62 53 53 0 0 1-9.18-6.54 2.29 2.29 0 0 0-1.93-.61 28.26 28.26 0 0 1-20.74-6.12 29.42 29.42 0 0 1-4-3.89c-.25-.29-.28-.44.07-.67a68.93 68.93 0 0 0 8-6c.3-.27.46-.12.67.09 2.67 2.6 5.32 5.21 8 7.79 2.9 2.77 5.83 5.52 8.75 8.28a.72.72 0 0 0 .84.22c3.53-1.29 7.07-2.56 10.61-3.84l.27-.12c-.16-.26-.41-.31-.62-.42a126.18 126.18 0 0 1-13-7.09 96.41 96.41 0 0 1-12.52-9.9c-.35-.32-.23-.57-.07-.89 1.92-3.9 3.81-7.82 5.47-11.85a54.59 54.59 0 0 0 3.54-11.22 21.5 21.5 0 0 0-.68-10.77c-.17-.53-.05-.66.46-.68a28.3 28.3 0 0 1 20.28 6.47 27.59 27.59 0 0 1 10.15 18 28.1 28.1 0 0 1-7.24 23.5 27.06 27.06 0 0 1-5.14 4.41zm-81.75 5.94l2.29-.68c7.12-2.12 14.28-4.14 21.25-6.75A62.21 62.21 0 0 0 235.22 48c.41-.32.52-.55.27-1.07a28.5 28.5 0 0 1-2.34-18c0-.29.13-.55-.12-.83a40.75 40.75 0 0 0-13.54-10.3 25.87 25.87 0 0 0-3.14-1.18c-.29-.09-.51-.19-.47-.56s.35-.31.57-.32c2.3-.1 4.6-.2 6.91-.26a8 8 0 0 1 3.93 1.07 27.54 27.54 0 0 1 7.09 5.89c.59.63.58.63 1-.15a28.7 28.7 0 0 1 15.2-14.41c.56-.23.69-.09.9.44 1.62 4.18.95 8.27-.39 12.35a122.8 122.8 0 0 1-5.58 13.11l-.62 1.32c-.31.65-.31.65-.75 0-1.26-1.73-2.51-3.46-3.77-5.18-1.53-2.1-3.1-4.18-4.79-6.16-.43-.52-.44-.52-.66.13-.47 1.33-.93 2.67-1.41 4-.09.27-.12.46.12.67a36.49 36.49 0 0 1 5.28 6.48c1.21 1.7 2.4 3.42 3.63 5.12a.65.65 0 0 1 0 1 41.5 41.5 0 0 1-6 6c-.48.39-.47.64-.15 1.12.82 1.22 1.57 2.5 2.39 3.73.28.43.26.64-.19.93a71.11 71.11 0 0 1-23.61 9.9 84.36 84.36 0 0 1-18.06 1.94 3.8 3.8 0 0 1-1.81-.24z"/><path d="M23.51 23.69a4.71 4.71 0 0 1 1 .83c.58.57.7.69 1.29.69h2.24a4.38 4.38 0 0 1 1.85 0 16.06 16.06 0 0 0 4.58-.13 9.82 9.82 0 0 0 3.2-.83c.86-.56 1.8-1 1.42-1.42s-2.64-3.23-4.58-4.15a30.79 30.79 0 0 1-6.47-4.39c-1.23-1.23-1.81-1.88-2.37-1.88a3.15 3.15 0 0 0-1.78 1 1.69 1.69 0 0 1-2.11.56 7.38 7.38 0 0 0-2.71-.62c-1.08 0-4.4.11-5.3 1S5.7 21.19 4 24.2s-.21 4.54 1.14 5.89 4.42 4.09 14 7.42 13.69 8.27 13.69 8.27a1.78 1.78 0 0 1 .17 2.48 34.81 34.81 0 0 1-4 4.45c-.41.41-.36 1-2.31 1s-5.5.29-6.82-.17-2.53.08-3.3-.69-1.29-1.19-1.06-1.42.17-1 1.49-1 3.41.34 3.26-.73.17-2-2.37-2-2.94.47-4.12 0-2.84-.27-5.21.29a23.75 23.75 0 0 1-5.71.76c-1.68 0-2.8.27-2.8 1.22s1.38.86 2.24 1.12 1.78-.36 9 4.69 9 5.24 14.77 5.24 9.46.33 11.61-2.38 3.89-3 5.74-9.45-1.43-7.2-1.95-6.67-2.51-.86-2.74-1.09-4.39-3.35-5.72-4.64-.86-1.29-4.12-2.35-13.16-3.36-14.54-5.57 3.39-5 4.28-5.15 3.9-.49 4.89-.03zm92.49 0a5 5 0 0 1 1 .83c.58.57.69.69 1.29.69h2.24a4.36 4.36 0 0 1 1.85 0 16.07 16.07 0 0 0 4.58-.13 9.82 9.82 0 0 0 3.2-.83c.85-.56 1.79-1 1.42-1.42S129 19.6 127 18.68a31 31 0 0 1-6.46-4.39c-1.24-1.23-1.81-1.88-2.37-1.88a3.17 3.17 0 0 0-1.79 1 1.69 1.69 0 0 1-2.11.56 7.33 7.33 0 0 0-2.7-.62c-1.09 0-4.4.11-5.31 1s-8.11 6.83-9.84 9.84-.21 4.54 1.14 5.89 4.42 4.09 14 7.42 13.68 8.27 13.68 8.27a1.78 1.78 0 0 1 .23 2.48 34.89 34.89 0 0 1-4 4.45c-.42.41-.37 1-2.31 1s-5.51.29-6.83-.17-2.52.08-3.29-.69-1.29-1.19-1.06-1.42.17-1 1.48-1 3.42.34 3.27-.73.16-2-2.38-2-2.93.47-4.12 0-2.83-.27-5.21.29a23.62 23.62 0 0 1-5.7.76c-1.68 0-2.8.27-2.8 1.22s1.38.86 2.24 1.12 1.78-.36 9 4.69 9 5.24 14.78 5.24 9.46.33 11.6-2.38 3.9-3 5.74-9.45-1.42-7.2-1.95-6.67-2.5-.86-2.73-1.09-4.39-3.48-5.67-4.77-.86-1.29-4.13-2.35-13.15-3.36-14.54-5.57 3.4-5 4.29-5.15 3.85-.35 4.85.11zm-58-9.3s.1-1.58-.29-2-1.26 0-1.78-.49a2.89 2.89 0 0 0-5.35 1.24c0 1.13.45 2.32.45 3.8s-.25 23.1-.45 25-.34 11 3.17 14.49 4.9 4.5 10.34 4.21 9.79-1 10.88-3.07 2-4.13 2.42-3.76.4.5 2.38 3.81S82 61 82.76 61a4 4 0 0 1 2.48.6 3.85 3.85 0 0 0 3.21 1.33c1.63-.2 1.09-1.33-.45-2.87s-1.83-2.27-1.83-3.31-.74-.64-.93-2-.8-2.82-.3-4.4a27.69 27.69 0 0 0 .49-7.72c-.24-1.33.65-6.62.65-13.25s.24-9-.25-9.55-1.14-.49-1.14-1.48-.2-1.88-.69-1.88a.88.88 0 0 0-1 1c0 .79.44 1.63 0 2s-.94.84-.94-1.14-.25-3.81-.25-4.3-.1-1.49-.69-1.64-1.12-.07-1.12.44a1.07 1.07 0 0 1-.46 1c-.35.35-1 0-1.25 1.23S76.83 21.71 77 26s-1 13.6-2.37 19.68-3.81 9.74-8 9.55-8.9-3.61-10-9.9-.6-14.69.2-17.6A59.5 59.5 0 0 0 58 14.39zM147 0a1.78 1.78 0 0 1-.25 1.68c-.61.62 0 1.34-1.43 1.53s-2.23-.39-2 .72.86 8.29 1.06 10.22a232.1 232.1 0 0 1-.53 27.59c-1 10.54-.95 14.15-1.65 15.58a14 14 0 0 0-1.23 3.84c0 .52 4.75.19 4.94 0A67.88 67.88 0 0 0 148.1 51c.74-4.89 3.46-16 4.6-17.8s2.12-2.2 3.3-1.94 2 .72 2.77-.1 1.09-2 3.12-.44a33.25 33.25 0 0 1 3.95 3.8 8.43 8.43 0 0 1 2.28 5.59c0 2.87.35 13.6.35 16.67s.54 6.68 1.88 6.68 3.56-4.5 3.56-13.06.39-12.91-.7-17.71-3.56-9.54-12-9.54-11.43.44-11.88-3a32.31 32.31 0 0 1 .25-10.73c.74-2.84.35-9.42-2.58-9.42zm42.3 16.22a6.33 6.33 0 0 0-3 1.14c-1.38.94-2.77 1.73-2.77 2.42a12.87 12.87 0 0 0 0 5.69c.69 4 .2 10.88-.1 13.45s-.84 6-.84 6-.32 2.64 0 3 1.09 0 1.09 1.18.54 1.88 0 2.43-.69.54-.69 1.23-.2.94.61 1.31 2 .37 2 1.51a4.17 4.17 0 0 0 1 3.12c.84.84 1.88 1.73 2.27 2.13a14.21 14.21 0 0 0 2.72 2.07c.35 0 1.19-.74 1-3.86s0-15.18 0-17.41v-23c0-2.23.12-3.17-.87-3.17a6.86 6.86 0 0 0-2.42.76zm-2.18-3.36s1 .69 3.39-3.19c1.68-2.77 2-2.4 1.76-3.59 0 0 .19-1.63-1-2.07s-1.71-.52-2.23 0-.5.34-1.51.34-1.11-1.43-1.9 0-1.34 1.19-1.34 3.07.35 3.61 1.29 4.55 1.54.89 1.54.89zM91.6 86.43a2.81 2.81 0 0 0 2.1.94c1.08 0 1.46-.55 1.46-1 0-.7-.76-.9-1.61-1.12-1.07-.28-2.31-.59-2.31-1.94 0-1.1 1-1.9 2.36-1.9a3.27 3.27 0 0 1 2.43.93l-.58.74a2.6 2.6 0 0 0-1.93-.78c-.74 0-1.25.38-1.25.94s.72.78 1.55 1c1.09.29 2.36.63 2.36 2 0 1-.72 2-2.52 2A3.41 3.41 0 0 1 91 87.2zm10.7.33H99l-.54 1.38h-1.1l2.64-6.66h1.25l2.65 6.66h-1.1zm-3-.89h2.7l-1.35-3.52zm6.27-4.39h1v5.78h3v.88h-4zm5.82 0h1v5.78h3v.88h-4zm5.81 0h4.48v.88h-3.48v1.94h3.41v.88h-3.41v2.08h3.48v.88h-4.48zm13.91 5.28h-3.27l-.54 1.38h-1.1l2.65-6.66h1.25l2.65 6.66h-1.1zm-3.64-7.28h.89l1.44 1.44h-.66zm.66 6.39h2.69l-1.35-3.52zm15.12-3.02l-2.16 5.29h-.42l-2.16-5.29v5.29h-1v-6.66h1.43l1.94 4.78 1.94-4.78h1.43v6.66h-1zm7.54 3.91h-3.27l-.52 1.38h-1.1l2.65-6.66h1.25l2.65 6.66h-1.1zm-3-.89h2.69l-1.35-3.52zm7.27-2.87v5.11h-1v-6.63h1l3.63 5v-5h1v6.66h-1zm10.17-1.63a3.15 3.15 0 0 1 2.64 1.32l-.81.47a2.3 2.3 0 0 0-1.83-.9 2.56 2.56 0 0 0 0 5.12 2.54 2.54 0 0 0 1.68-.66v-1.2h-2.13v-.88h3.13v2.45a3.51 3.51 0 0 1-2.68 1.18 3.45 3.45 0 1 1 0-6.9zm4.88.11h4.48v.88h-3.48v1.94h3.41v.88h-3.41v2.08h3.48v.88h-4.48zm8.83 4.09h-1.25v2.57h-1v-6.66h2.8a2 2 0 0 1 2.14 2 1.86 1.86 0 0 1-1.63 1.99l1.71 2.67h-1.16zm.43-3.21h-1.68v2.33h1.68a1.17 1.17 0 1 0 0-2.33zM61.56 95.48h1.14l2.13 5.57L67 95.48h1.14l-2.65 6.66h-1.28zm7.75 0h1v6.66h-1zM73.22 97v5.11h-1v-6.63h1l3.63 5v-5h1v6.66h-1zm6.71 3.43a2.81 2.81 0 0 0 2.1.94c1.07 0 1.45-.55 1.45-1 0-.7-.76-.9-1.61-1.12-1.06-.28-2.3-.59-2.3-1.94 0-1.1 1-1.9 2.35-1.9a3.27 3.27 0 0 1 2.43.93l-.58.74a2.6 2.6 0 0 0-1.93-.78c-.73 0-1.24.38-1.24.94s.72.78 1.54 1c1.09.29 2.36.63 2.36 2 0 1-.72 2-2.51 2a3.41 3.41 0 0 1-2.63-1.06zm13.07.33h-3.3l-.54 1.38h-1.1l2.64-6.66H92l2.65 6.66H93.5zm-3-.89h2.68l-1.35-3.52zm5.52-4.39h1v4a1.79 1.79 0 1 0 3.58 0v-4h1v4a2.8 2.8 0 0 1-5.6 0zm10.18 0h2.8a2 2 0 1 1 0 4.09h-1.8v2.57h-1zm2.67.88h-1.67v2.33h1.67a1.17 1.17 0 1 0 0-2.33zm5.83 3.21H113v2.57h-1v-6.66h2.81a2 2 0 0 1 2.14 2 1.86 1.86 0 0 1-1.66 1.94l1.71 2.67h-1.16zm.43-3.21H113v2.33h1.68a1.17 1.17 0 1 0 0-2.33zm3.89-.88h1v6.66h-1zm5.39 3.94l-2 2.72h-1.21l2.56-3.42-2.41-3.24h1.21l1.85 2.52 1.84-2.55H127l-2.39 3.23 2.54 3.43h-1.2zm7.09-3.94h2.37a3.33 3.33 0 1 1 0 6.66H131zm2.37 5.78a2.45 2.45 0 0 0 0-4.9H132v4.9zm5.08-5.78h4.47v.88h-3.47v1.94h3.4v.88h-3.4v2.08h3.47v.88h-4.47zm8.81 0h1v5.78h3v.88h-4zm9.92 5.28h-3.27l-.54 1.38h-1.1l2.65-6.66h1.25l2.65 6.66h-1.1zm-3-.89h2.69l-1.35-3.52zm8.68.56a2.81 2.81 0 0 0 2.1.94c1.08 0 1.46-.55 1.46-1 0-.7-.76-.9-1.61-1.12-1.07-.28-2.31-.59-2.31-1.94 0-1.1 1-1.9 2.36-1.9a3.27 3.27 0 0 1 2.43.93l-.58.74a2.6 2.6 0 0 0-1.93-.78c-.74 0-1.25.38-1.25.94s.72.78 1.55 1c1.09.29 2.36.63 2.36 2 0 1-.72 2-2.52 2a3.41 3.41 0 0 1-2.63-1.06zm10.26.33h-3.27l-.54 1.38h-1.1l2.65-6.66h1.25l2.65 6.66h-1.1zm-3-.89h2.69l-1.35-3.52zm11.07 1.37l.59.65-.69.59-.61-.67a3.44 3.44 0 0 1-1.74.45 3.45 3.45 0 1 1 3.35-3.45 3.51 3.51 0 0 1-.9 2.43zm-1.35-.14l-.89-1 .7-.59.88 1a2.8 2.8 0 0 0 .53-1.7 2.34 2.34 0 1 0-2.32 2.56 2.3 2.3 0 0 0 1.1-.27z"/><path class="cls-1" d="M206.47 82.36h-2.07v-.88h5.13v.88h-2.06v5.78h-1zm8.36 4.4h-3.27l-.56 1.38h-1.1l2.65-6.66h1.25l2.65 6.66h-1.1zm-3-.89h2.69l-1.35-3.52zm7.91-.63l-.63.71v2.19h-1v-6.66h1v3.3l2.78-3.3h1.24l-2.75 3.15 3 3.51h-1.24zm5.26-3.76h4.48v.88H226v1.94h3.41v.88H226v2.08h3.48v.88H225zm6.23 3.85h2.4v.78h-2.4zm7.63-3.96a3.45 3.45 0 1 1-3.35 3.44 3.28 3.28 0 0 1 3.35-3.44zm0 .89a2.57 2.57 0 1 0 2.33 2.55 2.33 2.33 0 0 0-2.33-2.55zm5.36-.78h1v4a1.8 1.8 0 1 0 3.59 0v-4h1v4a2.81 2.81 0 0 1-5.61 0zm9.44.88h-2.07v-.88h5.13v.88h-2.06v5.78h-1zm-48.82 13.12h1v5.78h3v.88h-4zm5.81 0h1v6.66h-1zm2.62 0h1.14l2.13 5.57 2.14-5.57h1.14l-2.65 6.66h-1.25zm10.43 4.09h-1.25v2.57h-1v-6.66h2.81a2 2 0 0 1 2.14 2 1.86 1.86 0 0 1-1.66 1.94l1.71 2.67h-1.16zm.43-3.21h-1.68v2.33h1.68a1.17 1.17 0 1 0 0-2.33zm8.7 4.4h-3.26l-.54 1.38h-1.1l2.64-6.66h1.25l2.65 6.66h-1.1zm-3-.89h2.68l-1.35-3.52zm6.28-4.39h1v6.66h-1zm3.47 4.95a2.81 2.81 0 0 0 2.1.94c1.08 0 1.46-.55 1.46-1 0-.7-.76-.9-1.61-1.12-1.07-.28-2.31-.59-2.31-1.94 0-1.1 1-1.9 2.36-1.9a3.27 3.27 0 0 1 2.43.93l-.58.74a2.6 2.6 0 0 0-1.93-.78c-.74 0-1.25.38-1.25.94s.72.78 1.55 1c1.09.29 2.36.63 2.36 2 0 1-.72 2-2.52 2a3.41 3.41 0 0 1-2.64-1.04zm9.55-5.06a3.45 3.45 0 1 1-3.36 3.44 3.28 3.28 0 0 1 3.36-3.44zm0 .89a2.57 2.57 0 1 0 2.33 2.55 2.33 2.33 0 0 0-2.33-2.55zm6.42.74v5.11h-1v-6.63h1l3.62 5v-5h1v6.66h-1z"/><path d="M192.26 77.52H192.92999999999998V105.44999999999999H192.26z"/></g></g></svg>